%FSLAX43Y43*%
%MOMM*%
G71*
G01*
G75*
%ADD10C,0.300*%
%ADD11C,0.075*%
%ADD12R,0.600X2.200*%
%ADD13R,0.600X2.200*%
%ADD14R,1.800X1.600*%
%ADD15R,1.600X1.800*%
%ADD16R,1.300X0.850*%
%ADD17R,3.500X0.600*%
%ADD18R,1.600X1.000*%
%ADD19R,5.400X5.500*%
%ADD20C,0.254*%
%ADD21C,0.250*%
%ADD22C,0.400*%
%ADD23C,0.500*%
%ADD24C,2.000*%
%ADD25C,1.000*%
%ADD26C,0.600*%
%ADD27C,0.700*%
%ADD28C,1.500*%
%ADD29C,4.000*%
%ADD30C,0.800*%
%ADD31C,2.000*%
%ADD32R,2.000X2.000*%
%ADD33C,1.500*%
%ADD34R,1.500X1.500*%
%ADD35R,1.600X1.600*%
%ADD36C,1.600*%
%ADD37C,4.000*%
%ADD38R,7.000X7.000*%
%ADD39C,3.000*%
%ADD40C,1.500*%
%ADD41C,1.400*%
%ADD42R,1.400X1.400*%
%ADD43C,1.100*%
%ADD44C,1.200*%
%ADD45R,5.500X7.100*%
%ADD46R,1.000X1.600*%
%ADD47R,1.600X1.800*%
%ADD48R,0.850X1.300*%
%ADD49R,2.300X2.300*%
%ADD50R,0.803X2.403*%
%ADD51R,0.803X2.403*%
%ADD52R,2.003X1.803*%
%ADD53R,1.803X2.003*%
%ADD54R,1.503X1.053*%
%ADD55R,3.703X0.803*%
%ADD56R,1.803X1.203*%
%ADD57R,5.603X5.703*%
%ADD58C,2.203*%
%ADD59R,2.203X2.203*%
%ADD60C,1.703*%
%ADD61R,1.703X1.703*%
%ADD62R,1.803X1.803*%
%ADD63C,1.803*%
%ADD64C,4.203*%
%ADD65R,7.203X7.203*%
%ADD66C,3.203*%
%ADD67C,1.703*%
%ADD68C,1.603*%
%ADD69R,1.603X1.603*%
%ADD70C,1.303*%
%ADD71C,1.403*%
D11*
X66471Y44265D02*
X66773Y43962D01*
X65551Y42740D01*
X65249Y43043D01*
X66471Y44265D01*
Y44177D02*
X66685Y43962D01*
X65551Y42828D01*
X65337Y43043D01*
X66471Y44177D01*
Y44088D02*
X66597Y43962D01*
X65551Y42917D01*
X65425Y43043D01*
X66471Y44088D01*
Y44000D02*
X66508Y43962D01*
X65551Y43005D01*
X65514Y43043D01*
X66471Y44000D01*
X66436Y43946D02*
X65586Y43059D01*
X66824Y43911D02*
X67127Y43609D01*
X65905Y42387D01*
X65602Y42689D01*
X66824Y43911D01*
Y43823D02*
X67039Y43609D01*
X65905Y42475D01*
X65690Y42689D01*
X66824Y43823D01*
Y43735D02*
X66950Y43609D01*
X65905Y42563D01*
X65779Y42689D01*
X66824Y43735D01*
Y43646D02*
X66862Y43609D01*
X65905Y42652D01*
X65867Y42689D01*
X66824Y43646D01*
X66790Y43592D02*
X65939Y42706D01*
X67531Y43204D02*
X67834Y42901D01*
X66612Y41679D01*
X66309Y41982D01*
X67531Y43204D01*
Y43116D02*
X67746Y42901D01*
X66612Y41768D01*
X66398Y41982D01*
X67531Y43116D01*
Y43027D02*
X67657Y42901D01*
X66612Y41856D01*
X66486Y41982D01*
X67531Y43027D01*
Y42939D02*
X67569Y42901D01*
X66612Y41945D01*
X66574Y41982D01*
X67531Y42939D01*
X67497Y42885D02*
X66646Y41999D01*
X62389Y42689D02*
X62087Y42387D01*
X60865Y43609D01*
X61167Y43911D01*
X62389Y42689D01*
X62301D02*
X62087Y42475D01*
X60953Y43609D01*
X61167Y43823D01*
X62301Y42689D01*
X62213D02*
X62087Y42563D01*
X61041Y43609D01*
X61167Y43735D01*
X62213Y42689D01*
X62124D02*
X62087Y42652D01*
X61130Y43609D01*
X61167Y43646D01*
X62124Y42689D01*
X62070Y42724D02*
X61184Y43574D01*
X62743Y43043D02*
X62440Y42740D01*
X61218Y43962D01*
X61521Y44265D01*
X62743Y43043D01*
X62655D02*
X62440Y42829D01*
X61306Y43962D01*
X61521Y44177D01*
X62655Y43043D01*
X62566D02*
X62440Y42917D01*
X61395Y43962D01*
X61521Y44088D01*
X62566Y43043D01*
X62478D02*
X62440Y43005D01*
X61483Y43962D01*
X61521Y44000D01*
X62478Y43043D01*
X62424Y43077D02*
X61537Y43928D01*
X63096Y43396D02*
X62794Y43094D01*
X61572Y44316D01*
X61874Y44618D01*
X63096Y43396D01*
X63008D02*
X62794Y43182D01*
X61660Y44316D01*
X61874Y44530D01*
X63008Y43396D01*
X62920D02*
X62794Y43270D01*
X61748Y44316D01*
X61874Y44442D01*
X62920Y43396D01*
X62831D02*
X62794Y43359D01*
X61837Y44316D01*
X61874Y44353D01*
X62831Y43396D01*
X62777Y43431D02*
X61891Y44281D01*
X70006Y40729D02*
X70309Y40427D01*
X69087Y39205D01*
X68784Y39507D01*
X70006Y40729D01*
Y40641D02*
X70221Y40427D01*
X69087Y39293D01*
X68872Y39507D01*
X70006Y40641D01*
Y40553D02*
X70132Y40427D01*
X69087Y39381D01*
X68961Y39507D01*
X70006Y40553D01*
Y40464D02*
X70044Y40427D01*
X69087Y39470D01*
X69049Y39507D01*
X70006Y40464D01*
X69972Y40410D02*
X69121Y39524D01*
X70662Y35123D02*
X70360Y34820D01*
X69138Y36043D01*
X69440Y36345D01*
X70662Y35123D01*
X70574D02*
X70360Y34909D01*
X69226Y36043D01*
X69440Y36257D01*
X70574Y35123D01*
X70486D02*
X70360Y34997D01*
X69314Y36043D01*
X69440Y36169D01*
X70486Y35123D01*
X70397D02*
X70360Y35086D01*
X69403Y36043D01*
X69440Y36080D01*
X70397Y35123D01*
X70343Y35158D02*
X69457Y36008D01*
X71370Y35830D02*
X71067Y35528D01*
X69845Y36750D01*
X70148Y37052D01*
X71370Y35830D01*
X71281D02*
X71067Y35616D01*
X69933Y36750D01*
X70148Y36964D01*
X71281Y35830D01*
X71193D02*
X71067Y35704D01*
X70021Y36750D01*
X70148Y36876D01*
X71193Y35830D01*
X71104D02*
X71067Y35793D01*
X70110Y36750D01*
X70148Y36787D01*
X71104Y35830D01*
X71050Y35865D02*
X70164Y36715D01*
X71067Y39669D02*
X71370Y39366D01*
X70148Y38144D01*
X69845Y38447D01*
X71067Y39669D01*
Y39580D02*
X71281Y39366D01*
X70148Y38232D01*
X69933Y38447D01*
X71067Y39580D01*
Y39492D02*
X71193Y39366D01*
X70148Y38321D01*
X70022Y38447D01*
X71067Y39492D01*
Y39404D02*
X71104Y39366D01*
X70148Y38409D01*
X70110Y38447D01*
X71067Y39404D01*
X71032Y39350D02*
X70182Y38463D01*
X58551Y36345D02*
X58854Y36043D01*
X57632Y34820D01*
X57329Y35123D01*
X58551Y36345D01*
Y36257D02*
X58765Y36043D01*
X57632Y34909D01*
X57417Y35123D01*
X58551Y36257D01*
Y36169D02*
X58677Y36043D01*
X57632Y34997D01*
X57506Y35123D01*
X58551Y36169D01*
Y36080D02*
X58589Y36043D01*
X57632Y35086D01*
X57594Y35123D01*
X58551Y36080D01*
X58517Y36026D02*
X57666Y35140D01*
X58905Y35992D02*
X59207Y35689D01*
X57985Y34467D01*
X57683Y34770D01*
X58905Y35992D01*
Y35903D02*
X59119Y35689D01*
X57985Y34555D01*
X57771Y34770D01*
X58905Y35903D01*
Y35815D02*
X59031Y35689D01*
X57985Y34644D01*
X57859Y34770D01*
X58905Y35815D01*
Y35727D02*
X58942Y35689D01*
X57985Y34732D01*
X57948Y34770D01*
X58905Y35727D01*
X58870Y35673D02*
X58020Y34786D01*
X59258Y35638D02*
X59561Y35335D01*
X58339Y34113D01*
X58036Y34416D01*
X59258Y35638D01*
Y35550D02*
X59473Y35335D01*
X58339Y34202D01*
X58124Y34416D01*
X59258Y35550D01*
Y35461D02*
X59384Y35335D01*
X58339Y34290D01*
X58213Y34416D01*
X59258Y35461D01*
Y35373D02*
X59296Y35335D01*
X58339Y34379D01*
X58301Y34416D01*
X59258Y35373D01*
X59224Y35319D02*
X58373Y34433D01*
X59612Y35285D02*
X59914Y34982D01*
X58692Y33760D01*
X58390Y34063D01*
X59612Y35285D01*
Y35196D02*
X59826Y34982D01*
X58692Y33848D01*
X58478Y34063D01*
X59612Y35196D01*
Y35108D02*
X59738Y34982D01*
X58692Y33937D01*
X58566Y34063D01*
X59612Y35108D01*
Y35019D02*
X59649Y34982D01*
X58692Y34025D01*
X58655Y34063D01*
X59612Y35019D01*
X59577Y34965D02*
X58727Y34079D01*
X60672Y34224D02*
X60975Y33921D01*
X59753Y32699D01*
X59450Y33002D01*
X60672Y34224D01*
Y34136D02*
X60887Y33921D01*
X59753Y32788D01*
X59539Y33002D01*
X60672Y34136D01*
Y34047D02*
X60798Y33921D01*
X59753Y32876D01*
X59627Y33002D01*
X60672Y34047D01*
Y33959D02*
X60710Y33921D01*
X59753Y32964D01*
X59715Y33002D01*
X60672Y33959D01*
X60638Y33905D02*
X59787Y33018D01*
X61026Y33870D02*
X61329Y33568D01*
X60107Y32346D01*
X59804Y32648D01*
X61026Y33870D01*
Y33782D02*
X61240Y33568D01*
X60107Y32434D01*
X59892Y32648D01*
X61026Y33782D01*
Y33694D02*
X61152Y33568D01*
X60107Y32522D01*
X59981Y32648D01*
X61026Y33694D01*
Y33605D02*
X61063Y33568D01*
X60107Y32611D01*
X60069Y32648D01*
X61026Y33605D01*
X60992Y33551D02*
X60141Y32665D01*
X61379Y33517D02*
X61682Y33214D01*
X60460Y31992D01*
X60157Y32295D01*
X61379Y33517D01*
Y33428D02*
X61594Y33214D01*
X60460Y32080D01*
X60246Y32295D01*
X61379Y33428D01*
Y33340D02*
X61505Y33214D01*
X60460Y32169D01*
X60334Y32295D01*
X61379Y33340D01*
Y33252D02*
X61417Y33214D01*
X60460Y32257D01*
X60423Y32295D01*
X61379Y33252D01*
X61345Y33198D02*
X60495Y32311D01*
X61733Y33163D02*
X62036Y32861D01*
X60814Y31639D01*
X60511Y31941D01*
X61733Y33163D01*
Y33075D02*
X61947Y32861D01*
X60814Y31727D01*
X60599Y31941D01*
X61733Y33075D01*
Y32987D02*
X61859Y32861D01*
X60814Y31815D01*
X60688Y31941D01*
X61733Y32987D01*
Y32898D02*
X61771Y32861D01*
X60814Y31904D01*
X60776Y31941D01*
X61733Y32898D01*
X61699Y32844D02*
X60848Y31958D01*
X62440Y32456D02*
X62743Y32153D01*
X61521Y30931D01*
X61218Y31234D01*
X62440Y32456D01*
Y32368D02*
X62655Y32153D01*
X61521Y31020D01*
X61306Y31234D01*
X62440Y32368D01*
Y32279D02*
X62566Y32153D01*
X61521Y31108D01*
X61395Y31234D01*
X62440Y32279D01*
Y32191D02*
X62478Y32153D01*
X61521Y31197D01*
X61483Y31234D01*
X62440Y32191D01*
X62406Y32137D02*
X61555Y31251D01*
X62794Y32103D02*
X63096Y31800D01*
X61874Y30578D01*
X61572Y30881D01*
X62794Y32103D01*
Y32014D02*
X63008Y31800D01*
X61874Y30666D01*
X61660Y30881D01*
X62794Y32014D01*
Y31926D02*
X62920Y31800D01*
X61874Y30755D01*
X61748Y30881D01*
X62794Y31926D01*
Y31838D02*
X62831Y31800D01*
X61874Y30843D01*
X61837Y30881D01*
X62794Y31838D01*
X62759Y31784D02*
X61909Y30897D01*
X63147Y31749D02*
X63450Y31446D01*
X62228Y30224D01*
X61925Y30527D01*
X63147Y31749D01*
Y31661D02*
X63362Y31446D01*
X62228Y30313D01*
X62013Y30527D01*
X63147Y31661D01*
Y31572D02*
X63273Y31446D01*
X62228Y30401D01*
X62102Y30527D01*
X63147Y31572D01*
Y31484D02*
X63185Y31446D01*
X62228Y30490D01*
X62190Y30527D01*
X63147Y31484D01*
X63113Y31430D02*
X62262Y30544D01*
X63450Y43750D02*
X63147Y43447D01*
X61925Y44669D01*
X62228Y44972D01*
X63450Y43750D01*
X63362D02*
X63147Y43536D01*
X62014Y44669D01*
X62228Y44884D01*
X63362Y43750D01*
X63273D02*
X63147Y43624D01*
X62102Y44669D01*
X62228Y44795D01*
X63273Y43750D01*
X63185D02*
X63147Y43712D01*
X62190Y44669D01*
X62228Y44707D01*
X63185Y43750D01*
X63131Y43784D02*
X62244Y44635D01*
X62036Y42336D02*
X61733Y42033D01*
X60511Y43255D01*
X60814Y43558D01*
X62036Y42336D01*
X61947D02*
X61733Y42121D01*
X60599Y43255D01*
X60814Y43469D01*
X61947Y42336D01*
X61859D02*
X61733Y42210D01*
X60688Y43255D01*
X60814Y43381D01*
X61859Y42336D01*
X61771D02*
X61733Y42298D01*
X60776Y43255D01*
X60814Y43293D01*
X61771Y42336D01*
X61717Y42370D02*
X60830Y43221D01*
X61682Y41982D02*
X61379Y41679D01*
X60157Y42901D01*
X60460Y43204D01*
X61682Y41982D01*
X61594D02*
X61379Y41768D01*
X60246Y42901D01*
X60460Y43116D01*
X61594Y41982D01*
X61505D02*
X61379Y41856D01*
X60334Y42901D01*
X60460Y43027D01*
X61505Y41982D01*
X61417D02*
X61379Y41945D01*
X60423Y42901D01*
X60460Y42939D01*
X61417Y41982D01*
X61363Y42017D02*
X60477Y42867D01*
X61329Y41629D02*
X61026Y41326D01*
X59804Y42548D01*
X60107Y42851D01*
X61329Y41629D01*
X61240D02*
X61026Y41414D01*
X59892Y42548D01*
X60107Y42762D01*
X61240Y41629D01*
X61152D02*
X61026Y41503D01*
X59981Y42548D01*
X60107Y42674D01*
X61152Y41629D01*
X61063D02*
X61026Y41591D01*
X60069Y42548D01*
X60107Y42586D01*
X61063Y41629D01*
X61009Y41663D02*
X60123Y42514D01*
X60975Y41275D02*
X60672Y40972D01*
X59450Y42194D01*
X59753Y42497D01*
X60975Y41275D01*
X60887D02*
X60672Y41061D01*
X59539Y42194D01*
X59753Y42409D01*
X60887Y41275D01*
X60798D02*
X60672Y41149D01*
X59627Y42194D01*
X59753Y42320D01*
X60798Y41275D01*
X60710D02*
X60672Y41237D01*
X59715Y42194D01*
X59753Y42232D01*
X60710Y41275D01*
X60656Y41309D02*
X59769Y42160D01*
X60622Y40922D02*
X60319Y40619D01*
X59097Y41841D01*
X59400Y42144D01*
X60622Y40922D01*
X60533D02*
X60319Y40707D01*
X59185Y41841D01*
X59400Y42055D01*
X60533Y40922D01*
X60445D02*
X60319Y40796D01*
X59274Y41841D01*
X59400Y41967D01*
X60445Y40922D01*
X60356D02*
X60319Y40884D01*
X59362Y41841D01*
X59400Y41878D01*
X60356Y40922D01*
X60302Y40956D02*
X59416Y41806D01*
X60268Y40568D02*
X59965Y40265D01*
X58743Y41487D01*
X59046Y41790D01*
X60268Y40568D01*
X60180D02*
X59965Y40354D01*
X58832Y41487D01*
X59046Y41702D01*
X60180Y40568D01*
X60091D02*
X59965Y40442D01*
X58920Y41487D01*
X59046Y41613D01*
X60091Y40568D01*
X60003D02*
X59965Y40530D01*
X59008Y41487D01*
X59046Y41525D01*
X60003Y40568D01*
X59949Y40602D02*
X59062Y41453D01*
X59914Y40214D02*
X59612Y39912D01*
X58390Y41134D01*
X58692Y41436D01*
X59914Y40214D01*
X59826D02*
X59612Y40000D01*
X58478Y41134D01*
X58692Y41348D01*
X59826Y40214D01*
X59738D02*
X59612Y40088D01*
X58566Y41134D01*
X58692Y41260D01*
X59738Y40214D01*
X59649D02*
X59612Y40177D01*
X58655Y41134D01*
X58692Y41171D01*
X59649Y40214D01*
X59595Y40249D02*
X58709Y41099D01*
X59561Y39861D02*
X59258Y39558D01*
X58036Y40780D01*
X58339Y41083D01*
X59561Y39861D01*
X59473D02*
X59258Y39646D01*
X58124Y40780D01*
X58339Y40995D01*
X59473Y39861D01*
X59384D02*
X59258Y39735D01*
X58213Y40780D01*
X58339Y40906D01*
X59384Y39861D01*
X59296D02*
X59258Y39823D01*
X58301Y40780D01*
X58339Y40818D01*
X59296Y39861D01*
X59242Y39895D02*
X58355Y40746D01*
X59207Y39507D02*
X58905Y39205D01*
X57683Y40427D01*
X57985Y40729D01*
X59207Y39507D01*
X59119D02*
X58905Y39293D01*
X57771Y40427D01*
X57985Y40641D01*
X59119Y39507D01*
X59031D02*
X58905Y39381D01*
X57859Y40427D01*
X57985Y40553D01*
X59031Y39507D01*
X58942D02*
X58905Y39470D01*
X57948Y40427D01*
X57985Y40464D01*
X58942Y39507D01*
X58888Y39542D02*
X58002Y40392D01*
X58500Y38800D02*
X58197Y38498D01*
X56975Y39720D01*
X57278Y40022D01*
X58500Y38800D01*
X58412D02*
X58197Y38586D01*
X57064Y39720D01*
X57278Y39934D01*
X58412Y38800D01*
X58323D02*
X58197Y38674D01*
X57152Y39720D01*
X57278Y39846D01*
X58323Y38800D01*
X58235D02*
X58197Y38763D01*
X57241Y39720D01*
X57278Y39757D01*
X58235Y38800D01*
X58181Y38835D02*
X57295Y39685D01*
X58147Y38447D02*
X57844Y38144D01*
X56622Y39366D01*
X56925Y39669D01*
X58147Y38447D01*
X58058D02*
X57844Y38232D01*
X56710Y39366D01*
X56925Y39580D01*
X58058Y38447D01*
X57970D02*
X57844Y38321D01*
X56799Y39366D01*
X56925Y39492D01*
X57970Y38447D01*
X57882D02*
X57844Y38409D01*
X56887Y39366D01*
X56925Y39404D01*
X57882Y38447D01*
X57828Y38481D02*
X56941Y39332D01*
X65763Y44972D02*
X66066Y44669D01*
X64844Y43447D01*
X64541Y43750D01*
X65763Y44972D01*
Y44884D02*
X65978Y44669D01*
X64844Y43536D01*
X64630Y43750D01*
X65763Y44884D01*
Y44795D02*
X65890Y44669D01*
X64844Y43624D01*
X64718Y43750D01*
X65763Y44795D01*
Y44707D02*
X65801Y44669D01*
X64844Y43712D01*
X64807Y43750D01*
X65763Y44707D01*
X65729Y44653D02*
X64879Y43766D01*
X66117Y44618D02*
X66420Y44316D01*
X65198Y43094D01*
X64895Y43396D01*
X66117Y44618D01*
Y44530D02*
X66331Y44316D01*
X65198Y43182D01*
X64983Y43396D01*
X66117Y44530D01*
Y44442D02*
X66243Y44316D01*
X65198Y43270D01*
X65072Y43396D01*
X66117Y44442D01*
Y44353D02*
X66155Y44316D01*
X65198Y43359D01*
X65160Y43396D01*
X66117Y44353D01*
X66083Y44299D02*
X65232Y43413D01*
X67178Y43558D02*
X67481Y43255D01*
X66258Y42033D01*
X65956Y42336D01*
X67178Y43558D01*
Y43469D02*
X67392Y43255D01*
X66258Y42121D01*
X66044Y42336D01*
X67178Y43469D01*
Y43381D02*
X67304Y43255D01*
X66258Y42210D01*
X66132Y42336D01*
X67178Y43381D01*
Y43293D02*
X67215Y43255D01*
X66258Y42298D01*
X66221Y42336D01*
X67178Y43293D01*
X67143Y43239D02*
X66293Y42352D01*
X67885Y42851D02*
X68188Y42548D01*
X66966Y41326D01*
X66663Y41629D01*
X67885Y42851D01*
Y42762D02*
X68099Y42548D01*
X66966Y41414D01*
X66751Y41629D01*
X67885Y42762D01*
Y42674D02*
X68011Y42548D01*
X66966Y41503D01*
X66840Y41629D01*
X67885Y42674D01*
Y42586D02*
X67922Y42548D01*
X66966Y41591D01*
X66928Y41629D01*
X67885Y42586D01*
X67850Y42532D02*
X67000Y41645D01*
X68238Y42497D02*
X68541Y42194D01*
X67319Y40972D01*
X67016Y41275D01*
X68238Y42497D01*
Y42409D02*
X68453Y42194D01*
X67319Y41061D01*
X67105Y41275D01*
X68238Y42409D01*
Y42320D02*
X68364Y42194D01*
X67319Y41149D01*
X67193Y41275D01*
X68238Y42320D01*
Y42232D02*
X68276Y42194D01*
X67319Y41238D01*
X67281Y41275D01*
X68238Y42232D01*
X68204Y42178D02*
X67353Y41292D01*
X68592Y42144D02*
X68895Y41841D01*
X67673Y40619D01*
X67370Y40922D01*
X68592Y42144D01*
Y42055D02*
X68806Y41841D01*
X67673Y40707D01*
X67458Y40922D01*
X68592Y42055D01*
Y41967D02*
X68718Y41841D01*
X67673Y40796D01*
X67547Y40922D01*
X68592Y41967D01*
Y41878D02*
X68630Y41841D01*
X67673Y40884D01*
X67635Y40922D01*
X68592Y41878D01*
X68558Y41824D02*
X67707Y40938D01*
X70360Y40376D02*
X70662Y40073D01*
X69440Y38851D01*
X69138Y39154D01*
X70360Y40376D01*
Y40287D02*
X70574Y40073D01*
X69440Y38939D01*
X69226Y39154D01*
X70360Y40287D01*
Y40199D02*
X70486Y40073D01*
X69440Y39028D01*
X69314Y39154D01*
X70360Y40199D01*
Y40111D02*
X70397Y40073D01*
X69440Y39116D01*
X69403Y39154D01*
X70360Y40111D01*
X70325Y40057D02*
X69475Y39170D01*
X70713Y40022D02*
X71016Y39719D01*
X69794Y38497D01*
X69491Y38800D01*
X70713Y40022D01*
Y39934D02*
X70928Y39719D01*
X69794Y38586D01*
X69580Y38800D01*
X70713Y39934D01*
Y39845D02*
X70839Y39719D01*
X69794Y38674D01*
X69668Y38800D01*
X70713Y39845D01*
Y39757D02*
X70751Y39719D01*
X69794Y38763D01*
X69756Y38800D01*
X70713Y39757D01*
X70679Y39703D02*
X69828Y38817D01*
X71016Y35477D02*
X70713Y35174D01*
X69491Y36396D01*
X69794Y36699D01*
X71016Y35477D01*
X70928D02*
X70713Y35262D01*
X69580Y36396D01*
X69794Y36610D01*
X70928Y35477D01*
X70839D02*
X70713Y35351D01*
X69668Y36396D01*
X69794Y36522D01*
X70839Y35477D01*
X70751D02*
X70713Y35439D01*
X69756Y36396D01*
X69794Y36434D01*
X70751Y35477D01*
X70697Y35511D02*
X69810Y36362D01*
X70309Y34770D02*
X70006Y34467D01*
X68784Y35689D01*
X69087Y35992D01*
X70309Y34770D01*
X70221D02*
X70006Y34555D01*
X68873Y35689D01*
X69087Y35903D01*
X70221Y34770D01*
X70132D02*
X70006Y34644D01*
X68961Y35689D01*
X69087Y35815D01*
X70132Y34770D01*
X70044D02*
X70006Y34732D01*
X69049Y35689D01*
X69087Y35727D01*
X70044Y34770D01*
X69990Y34804D02*
X69103Y35655D01*
X69955Y34416D02*
X69653Y34113D01*
X68431Y35335D01*
X68733Y35638D01*
X69955Y34416D01*
X69867D02*
X69653Y34202D01*
X68519Y35335D01*
X68733Y35550D01*
X69867Y34416D01*
X69779D02*
X69653Y34290D01*
X68607Y35335D01*
X68733Y35461D01*
X69779Y34416D01*
X69690D02*
X69653Y34379D01*
X68696Y35335D01*
X68733Y35373D01*
X69690Y34416D01*
X69636Y34451D02*
X68750Y35301D01*
X69602Y34063D02*
X69299Y33760D01*
X68077Y34982D01*
X68380Y35285D01*
X69602Y34063D01*
X69513D02*
X69299Y33848D01*
X68165Y34982D01*
X68380Y35196D01*
X69513Y34063D01*
X69425D02*
X69299Y33937D01*
X68254Y34982D01*
X68380Y35108D01*
X69425Y34063D01*
X69337D02*
X69299Y34025D01*
X68342Y34982D01*
X68380Y35020D01*
X69337Y34063D01*
X69283Y34097D02*
X68396Y34948D01*
X69248Y33709D02*
X68945Y33406D01*
X67723Y34628D01*
X68026Y34931D01*
X69248Y33709D01*
X69160D02*
X68945Y33495D01*
X67812Y34628D01*
X68026Y34843D01*
X69160Y33709D01*
X69071D02*
X68945Y33583D01*
X67900Y34628D01*
X68026Y34754D01*
X69071Y33709D01*
X68983D02*
X68945Y33671D01*
X67989Y34628D01*
X68026Y34666D01*
X68983Y33709D01*
X68929Y33743D02*
X68043Y34594D01*
X68895Y33356D02*
X68592Y33053D01*
X67370Y34275D01*
X67673Y34578D01*
X68895Y33356D01*
X68806D02*
X68592Y33141D01*
X67458Y34275D01*
X67673Y34489D01*
X68806Y33356D01*
X68718D02*
X68592Y33230D01*
X67547Y34275D01*
X67673Y34401D01*
X68718Y33356D01*
X68630D02*
X68592Y33318D01*
X67635Y34275D01*
X67673Y34312D01*
X68630Y33356D01*
X68576Y33390D02*
X67689Y34240D01*
X68541Y33002D02*
X68238Y32699D01*
X67016Y33921D01*
X67319Y34224D01*
X68541Y33002D01*
X68453D02*
X68238Y32788D01*
X67105Y33921D01*
X67319Y34136D01*
X68453Y33002D01*
X68364D02*
X68238Y32876D01*
X67193Y33921D01*
X67319Y34047D01*
X68364Y33002D01*
X68276D02*
X68238Y32964D01*
X67282Y33921D01*
X67319Y33959D01*
X68276Y33002D01*
X68222Y33036D02*
X67336Y33887D01*
X67834Y32295D02*
X67531Y31992D01*
X66309Y33214D01*
X66612Y33517D01*
X67834Y32295D01*
X67746D02*
X67531Y32080D01*
X66398Y33214D01*
X66612Y33428D01*
X67746Y32295D01*
X67657D02*
X67531Y32169D01*
X66486Y33214D01*
X66612Y33340D01*
X67657Y32295D01*
X67569D02*
X67531Y32257D01*
X66574Y33214D01*
X66612Y33252D01*
X67569Y32295D01*
X67515Y32329D02*
X66628Y33180D01*
X67480Y31941D02*
X67178Y31639D01*
X65956Y32861D01*
X66258Y33163D01*
X67480Y31941D01*
X67392D02*
X67178Y31727D01*
X66044Y32861D01*
X66258Y33075D01*
X67392Y31941D01*
X67304D02*
X67178Y31815D01*
X66132Y32861D01*
X66258Y32987D01*
X67304Y31941D01*
X67215D02*
X67178Y31904D01*
X66221Y32861D01*
X66258Y32898D01*
X67215Y31941D01*
X67161Y31976D02*
X66275Y32826D01*
X67127Y31588D02*
X66824Y31285D01*
X65602Y32507D01*
X65905Y32810D01*
X67127Y31588D01*
X67039D02*
X66824Y31373D01*
X65691Y32507D01*
X65905Y32721D01*
X67039Y31588D01*
X66950D02*
X66824Y31462D01*
X65779Y32507D01*
X65905Y32633D01*
X66950Y31588D01*
X66862D02*
X66824Y31550D01*
X65867Y32507D01*
X65905Y32545D01*
X66862Y31588D01*
X66808Y31622D02*
X65921Y32473D01*
X66773Y31234D02*
X66471Y30931D01*
X65249Y32153D01*
X65551Y32456D01*
X66773Y31234D01*
X66685D02*
X66471Y31020D01*
X65337Y32153D01*
X65551Y32368D01*
X66685Y31234D01*
X66597D02*
X66471Y31108D01*
X65425Y32153D01*
X65551Y32279D01*
X66597Y31234D01*
X66508D02*
X66471Y31197D01*
X65514Y32153D01*
X65551Y32191D01*
X66508Y31234D01*
X66454Y31269D02*
X65568Y32119D01*
X66420Y30881D02*
X66117Y30578D01*
X64895Y31800D01*
X65198Y32103D01*
X66420Y30881D01*
X66331D02*
X66117Y30666D01*
X64983Y31800D01*
X65198Y32014D01*
X66331Y30881D01*
X66243D02*
X66117Y30755D01*
X65072Y31800D01*
X65198Y31926D01*
X66243Y30881D01*
X66155D02*
X66117Y30843D01*
X65160Y31800D01*
X65198Y31837D01*
X66155Y30881D01*
X66101Y30915D02*
X65214Y31766D01*
X66066Y30527D02*
X65763Y30224D01*
X64541Y31446D01*
X64844Y31749D01*
X66066Y30527D01*
X65978D02*
X65763Y30313D01*
X64630Y31446D01*
X64844Y31661D01*
X65978Y30527D01*
X65889D02*
X65763Y30401D01*
X64718Y31446D01*
X64844Y31572D01*
X65889Y30527D01*
X65801D02*
X65763Y30490D01*
X64807Y31446D01*
X64844Y31484D01*
X65801Y30527D01*
X65747Y30562D02*
X64861Y31412D01*
X69653Y41083D02*
X69955Y40780D01*
X68733Y39558D01*
X68431Y39861D01*
X69653Y41083D01*
Y40995D02*
X69867Y40780D01*
X68733Y39646D01*
X68519Y39861D01*
X69653Y40995D01*
Y40906D02*
X69779Y40780D01*
X68733Y39735D01*
X68607Y39861D01*
X69653Y40906D01*
Y40818D02*
X69690Y40780D01*
X68733Y39823D01*
X68696Y39861D01*
X69653Y40818D01*
X69618Y40764D02*
X68768Y39877D01*
X69299Y41436D02*
X69602Y41134D01*
X68380Y39912D01*
X68077Y40214D01*
X69299Y41436D01*
Y41348D02*
X69513Y41134D01*
X68380Y40000D01*
X68165Y40214D01*
X69299Y41348D01*
Y41260D02*
X69425Y41134D01*
X68380Y40088D01*
X68254Y40214D01*
X69299Y41260D01*
Y41171D02*
X69337Y41134D01*
X68380Y40177D01*
X68342Y40214D01*
X69299Y41171D01*
X69265Y41117D02*
X68414Y40231D01*
X68945Y41790D02*
X69248Y41487D01*
X68026Y40265D01*
X67723Y40568D01*
X68945Y41790D01*
Y41702D02*
X69160Y41487D01*
X68026Y40354D01*
X67812Y40568D01*
X68945Y41702D01*
Y41613D02*
X69071Y41487D01*
X68026Y40442D01*
X67900Y40568D01*
X68945Y41613D01*
Y41525D02*
X68983Y41487D01*
X68026Y40530D01*
X67989Y40568D01*
X68945Y41525D01*
X68911Y41471D02*
X68061Y40584D01*
X62087Y32810D02*
X62389Y32507D01*
X61167Y31285D01*
X60865Y31588D01*
X62087Y32810D01*
Y32721D02*
X62301Y32507D01*
X61167Y31373D01*
X60953Y31588D01*
X62087Y32721D01*
Y32633D02*
X62213Y32507D01*
X61167Y31462D01*
X61041Y31588D01*
X62087Y32633D01*
Y32545D02*
X62124Y32507D01*
X61167Y31550D01*
X61130Y31588D01*
X62087Y32545D01*
X62052Y32491D02*
X61202Y31604D01*
X58854Y39154D02*
X58551Y38851D01*
X57329Y40073D01*
X57632Y40376D01*
X58854Y39154D01*
X58765D02*
X58551Y38939D01*
X57417Y40073D01*
X57632Y40287D01*
X58765Y39154D01*
X58677D02*
X58551Y39028D01*
X57506Y40073D01*
X57632Y40199D01*
X58677Y39154D01*
X58589D02*
X58551Y39116D01*
X57594Y40073D01*
X57632Y40111D01*
X58589Y39154D01*
X58535Y39188D02*
X57648Y40039D01*
X57844Y37052D02*
X58147Y36750D01*
X56925Y35528D01*
X56622Y35830D01*
X57844Y37052D01*
Y36964D02*
X58058Y36750D01*
X56925Y35616D01*
X56710Y35830D01*
X57844Y36964D01*
Y36876D02*
X57970Y36750D01*
X56925Y35704D01*
X56799Y35830D01*
X57844Y36876D01*
Y36787D02*
X57882Y36750D01*
X56925Y35793D01*
X56887Y35830D01*
X57844Y36787D01*
X57810Y36733D02*
X56959Y35847D01*
X58197Y36699D02*
X58500Y36396D01*
X57278Y35174D01*
X56975Y35477D01*
X58197Y36699D01*
Y36610D02*
X58412Y36396D01*
X57278Y35262D01*
X57064Y35477D01*
X58197Y36610D01*
Y36522D02*
X58323Y36396D01*
X57278Y35351D01*
X57152Y35477D01*
X58197Y36522D01*
Y36434D02*
X58235Y36396D01*
X57278Y35439D01*
X57241Y35477D01*
X58197Y36434D01*
X58163Y36380D02*
X57313Y35493D01*
X59965Y34931D02*
X60268Y34628D01*
X59046Y33406D01*
X58743Y33709D01*
X59965Y34931D01*
Y34843D02*
X60180Y34628D01*
X59046Y33495D01*
X58832Y33709D01*
X59965Y34843D01*
Y34754D02*
X60091Y34628D01*
X59046Y33583D01*
X58920Y33709D01*
X59965Y34754D01*
Y34666D02*
X60003Y34628D01*
X59046Y33671D01*
X59008Y33709D01*
X59965Y34666D01*
X59931Y34612D02*
X59080Y33725D01*
X60319Y34577D02*
X60621Y34275D01*
X59399Y33053D01*
X59097Y33355D01*
X60319Y34577D01*
Y34489D02*
X60533Y34275D01*
X59399Y33141D01*
X59185Y33355D01*
X60319Y34489D01*
Y34401D02*
X60445Y34275D01*
X59399Y33229D01*
X59273Y33355D01*
X60319Y34401D01*
Y34312D02*
X60356Y34275D01*
X59399Y33318D01*
X59362Y33355D01*
X60319Y34312D01*
X60284Y34258D02*
X59434Y33372D01*
X68188Y32648D02*
X67885Y32346D01*
X66663Y33568D01*
X66966Y33870D01*
X68188Y32648D01*
X68099D02*
X67885Y32434D01*
X66751Y33568D01*
X66966Y33782D01*
X68099Y32648D01*
X68011D02*
X67885Y32522D01*
X66840Y33568D01*
X66966Y33694D01*
X68011Y32648D01*
X67922D02*
X67885Y32611D01*
X66928Y33568D01*
X66966Y33605D01*
X67922Y32648D01*
X67868Y32683D02*
X66982Y33533D01*
D50*
X77505Y60600D02*
D03*
X36871Y41482D02*
D03*
Y46682D02*
D03*
D51*
X73695Y55400D02*
D03*
X74965Y55400D02*
D03*
X76235D02*
D03*
X77505Y55400D02*
D03*
X73695Y60600D02*
D03*
X74965Y60600D02*
D03*
X76235D02*
D03*
X38141Y41482D02*
D03*
X39411D02*
D03*
X40681D02*
D03*
X39411Y46682D02*
D03*
X38141D02*
D03*
X40681D02*
D03*
D52*
X66180Y62080D02*
D03*
X42880Y57880D02*
D03*
X42880Y55080D02*
D03*
X34493Y44512D02*
D03*
X34493Y41712D02*
D03*
X16080Y82580D02*
D03*
X42867Y49705D02*
D03*
X42867Y52505D02*
D03*
X39480Y66280D02*
D03*
X39480Y69080D02*
D03*
X31280Y65680D02*
D03*
X11880Y64780D02*
D03*
Y67580D02*
D03*
X39480Y63580D02*
D03*
X66180Y64880D02*
D03*
X42893Y41612D02*
D03*
X42893Y44412D02*
D03*
X31280Y62880D02*
D03*
X16080Y79780D02*
D03*
X39480Y60780D02*
D03*
D53*
X39839Y52317D02*
D03*
X37039D02*
D03*
X37086Y57699D02*
D03*
X39886Y57699D02*
D03*
X31486Y49499D02*
D03*
X34286Y49499D02*
D03*
X24626Y79330D02*
D03*
X27426Y79330D02*
D03*
X42886Y68999D02*
D03*
X45686Y68999D02*
D03*
X39813Y49512D02*
D03*
X37013D02*
D03*
X33486Y68899D02*
D03*
X30686Y68899D02*
D03*
X25186Y68899D02*
D03*
X22386Y68899D02*
D03*
X38026Y79330D02*
D03*
X40826Y79330D02*
D03*
X37086Y55099D02*
D03*
X39886Y55099D02*
D03*
X56386Y68899D02*
D03*
X59186Y68899D02*
D03*
X64961Y68986D02*
D03*
X51526Y79330D02*
D03*
X54326Y79330D02*
D03*
X31486Y52299D02*
D03*
X34286Y52299D02*
D03*
X67626Y79330D02*
D03*
X64826Y79330D02*
D03*
X19061Y68886D02*
D03*
X72261Y19386D02*
D03*
X69461Y19386D02*
D03*
X74896Y67298D02*
D03*
X77696Y67298D02*
D03*
X74846Y64600D02*
D03*
X77646D02*
D03*
X62161Y68986D02*
D03*
X16261Y68886D02*
D03*
D54*
X12372Y60991D02*
D03*
X10172Y61941D02*
D03*
X10172Y60041D02*
D03*
X22080Y81383D02*
D03*
X19880Y80433D02*
D03*
X22080Y79483D02*
D03*
X35480Y81383D02*
D03*
X33280Y80433D02*
D03*
X35480Y79483D02*
D03*
X48980Y81383D02*
D03*
X46780Y80433D02*
D03*
X48980Y79483D02*
D03*
X62280Y81383D02*
D03*
X60080Y80433D02*
D03*
X62280Y79483D02*
D03*
D55*
X66874Y22387D02*
D03*
X74874Y22387D02*
D03*
X74874Y23657D02*
D03*
Y24927D02*
D03*
X74874Y26197D02*
D03*
X66874Y23657D02*
D03*
X66874Y24927D02*
D03*
Y26197D02*
D03*
D56*
X66674Y10542D02*
D03*
X66674Y15042D02*
D03*
D57*
X74074Y12792D02*
D03*
D58*
X69100Y3800D02*
D03*
X3800Y74997D02*
D03*
X3799Y64999D02*
D03*
Y59999D02*
D03*
X3800Y49997D02*
D03*
X12804Y47120D02*
D03*
Y43720D02*
D03*
X15304Y42020D02*
D03*
X15304Y38620D02*
D03*
X15304Y48820D02*
D03*
Y35220D02*
D03*
X12804Y33520D02*
D03*
Y40320D02*
D03*
Y36920D02*
D03*
X15304Y45420D02*
D03*
X28204Y4390D02*
D03*
X29504Y10690D02*
D03*
X15704Y4390D02*
D03*
Y16890D02*
D03*
X3800Y29997D02*
D03*
Y39997D02*
D03*
X28204Y16890D02*
D03*
X47070Y10100D02*
D03*
X59570D02*
D03*
Y22600D02*
D03*
X45770Y16300D02*
D03*
X47070Y22600D02*
D03*
X59072Y3791D02*
D03*
X54072D02*
D03*
X36425Y18147D02*
D03*
X36425Y7947D02*
D03*
D59*
X64100Y3800D02*
D03*
X3800Y79997D02*
D03*
X3799Y69999D02*
D03*
X3800Y54997D02*
D03*
X15304Y31820D02*
D03*
X3800Y34997D02*
D03*
X3800Y44997D02*
D03*
X49072Y3791D02*
D03*
D60*
X24873Y86709D02*
D03*
X22333D02*
D03*
X17253Y86709D02*
D03*
X19793D02*
D03*
X14713Y71469D02*
D03*
X17253D02*
D03*
X19793D02*
D03*
X22333D02*
D03*
X14713Y86709D02*
D03*
X28121Y86709D02*
D03*
X35741Y71469D02*
D03*
X33201D02*
D03*
X30661D02*
D03*
X28121Y71469D02*
D03*
X33201Y86709D02*
D03*
X30661D02*
D03*
X35741Y86709D02*
D03*
X38281D02*
D03*
X41529Y86709D02*
D03*
X49149Y71469D02*
D03*
X46609D02*
D03*
X44069D02*
D03*
X41529D02*
D03*
X46609Y86709D02*
D03*
X44069Y86709D02*
D03*
X49149Y86709D02*
D03*
X51689D02*
D03*
X65097Y86709D02*
D03*
X62557D02*
D03*
X57477Y86709D02*
D03*
X60017D02*
D03*
X54937Y71469D02*
D03*
X57477D02*
D03*
X60017D02*
D03*
X62557D02*
D03*
X54937Y86709D02*
D03*
X25562Y59987D02*
D03*
X19562Y64987D02*
D03*
Y59987D02*
D03*
X42962D02*
D03*
X36962Y64987D02*
D03*
Y59987D02*
D03*
X60357Y59991D02*
D03*
X54357Y64991D02*
D03*
Y59991D02*
D03*
X22107Y39399D02*
D03*
X22489Y50890D02*
D03*
X45488Y38059D02*
D03*
X48028Y30439D02*
D03*
X45488Y35519D02*
D03*
D61*
X24873Y71469D02*
D03*
X38281Y71469D02*
D03*
X51689Y71469D02*
D03*
X65097Y71469D02*
D03*
X25562Y64987D02*
D03*
X42962D02*
D03*
X60357Y64991D02*
D03*
X9612Y28902D02*
D03*
Y25002D02*
D03*
X22107Y34399D02*
D03*
X22489Y45890D02*
D03*
X45488Y40599D02*
D03*
D62*
X28812Y64985D02*
D03*
X46212D02*
D03*
X63607Y64989D02*
D03*
D63*
X28812Y59905D02*
D03*
X16312Y64985D02*
D03*
Y59985D02*
D03*
X46212Y59905D02*
D03*
X33712Y64985D02*
D03*
X33712Y59985D02*
D03*
X63607Y59909D02*
D03*
X51107Y64989D02*
D03*
Y59989D02*
D03*
D64*
X3500Y3500D02*
D03*
X76500D02*
D03*
Y86500D02*
D03*
X3500D02*
D03*
D65*
X4403Y11606D02*
D03*
Y20806D02*
D03*
D66*
X13575Y21947D02*
D03*
X21225D02*
D03*
X23765Y4247D02*
D03*
D67*
X48028Y40599D02*
D03*
Y38059D02*
D03*
Y35519D02*
D03*
Y32979D02*
D03*
X45488Y30439D02*
D03*
D68*
X29792Y38089D02*
D03*
X75888Y76208D02*
D03*
D69*
X29792Y40589D02*
D03*
X78388Y76208D02*
D03*
D70*
X54374Y62909D02*
D03*
X60210Y62395D02*
D03*
X54374Y68407D02*
D03*
X18074Y78355D02*
D03*
X1675Y28495D02*
D03*
X73056Y1195D02*
D03*
X13874Y69457D02*
D03*
X77074Y71332D02*
D03*
X72506Y67595D02*
D03*
X30074Y78855D02*
D03*
X66108Y75695D02*
D03*
X72581Y74995D02*
D03*
X70274Y82754D02*
D03*
X67508Y84795D02*
D03*
Y84995D02*
D03*
X69974Y87428D02*
D03*
X28118Y74178D02*
D03*
X41539D02*
D03*
X54936D02*
D03*
X72706Y79395D02*
D03*
X72606Y71395D02*
D03*
X66833Y67395D02*
D03*
X67033Y72095D02*
D03*
X31417Y32795D02*
D03*
X28893Y35495D02*
D03*
X25294Y34495D02*
D03*
X76255Y19095D02*
D03*
X65683Y19295D02*
D03*
X8848Y32595D02*
D03*
X8974Y37588D02*
D03*
Y42612D02*
D03*
X6448Y40095D02*
D03*
Y45095D02*
D03*
X6348Y34995D02*
D03*
X1574Y37538D02*
D03*
X1500Y42595D02*
D03*
Y47495D02*
D03*
X1350Y32495D02*
D03*
X18174Y31164D02*
D03*
X17174Y40562D02*
D03*
X6448Y50095D02*
D03*
X9174Y52534D02*
D03*
X1474Y52634D02*
D03*
Y57533D02*
D03*
X9123Y57595D02*
D03*
X23374Y54533D02*
D03*
X20174Y57533D02*
D03*
X30817Y54495D02*
D03*
X23644Y48395D02*
D03*
X35416Y66295D02*
D03*
X25319Y66895D02*
D03*
X18074Y63356D02*
D03*
X23944Y63295D02*
D03*
X72574Y82926D02*
D03*
X72674Y88650D02*
D03*
X66174Y88525D02*
D03*
X64574Y83251D02*
D03*
X13497Y81795D02*
D03*
X9174Y81702D02*
D03*
X11474Y84451D02*
D03*
X9074Y86675D02*
D03*
X1525Y62595D02*
D03*
X1500Y67595D02*
D03*
Y72495D02*
D03*
X1625Y77595D02*
D03*
X1525Y82495D02*
D03*
X12172Y73895D02*
D03*
X45763Y20595D02*
D03*
X46374Y24666D02*
D03*
X42874Y26066D02*
D03*
D71*
X53774Y29218D02*
D03*
X53836Y37995D02*
D03*
X64858Y39415D02*
D03*
X62859Y37490D02*
D03*
X76874Y57760D02*
D03*
X57060Y60285D02*
D03*
X57010Y63134D02*
D03*
X57174Y54911D02*
D03*
X45874Y53836D02*
D03*
X31974Y42514D02*
D03*
X40040Y29995D02*
D03*
X32542D02*
D03*
X44974Y47488D02*
D03*
X47574Y45013D02*
D03*
X39974Y37565D02*
D03*
X35074Y37490D02*
D03*
X32574Y35016D02*
D03*
X37474Y35041D02*
D03*
X42539Y34995D02*
D03*
X40774Y21220D02*
D03*
X69382Y15895D02*
D03*
X65208Y7595D02*
D03*
X78374Y13946D02*
D03*
Y8073D02*
D03*
X49012Y19395D02*
D03*
X55086Y19195D02*
D03*
X63934Y26468D02*
D03*
X54136Y42489D02*
D03*
X72856Y30592D02*
D03*
X75006Y35016D02*
D03*
X74956Y40015D02*
D03*
X76530Y48163D02*
D03*
X76355Y52162D02*
D03*
X70957Y54111D02*
D03*
X67233Y53286D02*
D03*
X66358Y47288D02*
D03*
X62684Y47363D02*
D03*
X77330Y23669D02*
D03*
X78530Y55411D02*
D03*
X78480Y65958D02*
D03*
X68732Y38490D02*
D03*
X63659Y42589D02*
D03*
X58910Y37415D02*
D03*
X64084Y32917D02*
D03*
X66833Y37490D02*
D03*
X75331Y32417D02*
D03*
X70882Y29467D02*
D03*
X36516Y31717D02*
D03*
X36391Y21569D02*
D03*
X55336Y28143D02*
D03*
X56586Y26993D02*
D03*
X56511Y24444D02*
D03*
X62584Y25368D02*
D03*
X69157Y55936D02*
D03*
X22894Y57010D02*
D03*
X21569Y58235D02*
D03*
X71532Y56685D02*
D03*
X70332Y58360D02*
D03*
X74031Y49987D02*
D03*
X45038Y50062D02*
D03*
X25144Y24269D02*
D03*
X24419Y28818D02*
D03*
X75931Y14621D02*
D03*
X55886Y34316D02*
D03*
X50487Y33941D02*
D03*
X51062Y62859D02*
D03*
X33192Y62809D02*
D03*
X51537Y49762D02*
D03*
X58260Y49937D02*
D03*
X41139Y66405D02*
D03*
X55461Y66755D02*
D03*
X26562Y68924D02*
D03*
X52736Y69380D02*
D03*
X34691Y68955D02*
D03*
X48862Y69480D02*
D03*
X69882Y79302D02*
D03*
X55536Y79252D02*
D03*
X42164Y79277D02*
D03*
X71232Y77977D02*
D03*
X27018Y58632D02*
D03*
X11947Y70579D02*
D03*
X22544Y66655D02*
D03*
X14021Y67605D02*
D03*
X21469Y78052D02*
D03*
X11872Y63031D02*
D03*
X8815Y63189D02*
D03*
X56186Y85326D02*
D03*
X35741Y84001D02*
D03*
X22333Y84001D02*
D03*
X62557Y84001D02*
D03*
X49149Y84001D02*
D03*
X29243D02*
D03*
X30661Y82632D02*
D03*
X44069Y82632D02*
D03*
X57477Y82632D02*
D03*
X17253Y82632D02*
D03*
X14713Y74178D02*
D03*
X63934D02*
D03*
X57477Y75546D02*
D03*
X44069Y75546D02*
D03*
X30661Y75546D02*
D03*
X17253Y75546D02*
D03*
X62557Y76751D02*
D03*
X49149Y76751D02*
D03*
X35741Y76751D02*
D03*
X22333Y76751D02*
D03*
X7098Y54997D02*
D03*
X20770Y52909D02*
D03*
X24619Y37163D02*
D03*
X30892Y45111D02*
D03*
X30567Y49510D02*
D03*
X24744Y31790D02*
D03*
X23969Y81302D02*
D03*
X37365D02*
D03*
X50887D02*
D03*
X64184D02*
D03*
X7748Y58982D02*
D03*
X61359Y13369D02*
D03*
X64683Y15668D02*
D03*
X35916Y46760D02*
D03*
X14646Y61634D02*
D03*
X47613Y62309D02*
D03*
X47763Y51087D02*
D03*
X72481D02*
D03*
X57210Y52212D02*
D03*
X48887Y52512D02*
D03*
X56036Y53411D02*
D03*
X50012Y53761D02*
D03*
X57335Y44689D02*
D03*
X52811D02*
D03*
X55961Y45863D02*
D03*
X53811Y46163D02*
D03*
X77505Y44189D02*
D03*
X73306Y44489D02*
D03*
Y42864D02*
D03*
X77580Y42214D02*
D03*
X77455Y46088D02*
D03*
X73281D02*
D03*
X56760Y36991D02*
D03*
X56211Y41539D02*
D03*
X53561Y35291D02*
D03*
X69332Y27893D02*
D03*
M02*
