METRIC,LZ
M48
T1F00S00C0.600
T2F00S00C0.700
T3F00S00C0.850
T4F00S00C0.950
T5F00S00C1.000
T6F00S00C1.100
T7F00S00C1.300
T8F00S00C2.000
T9F00S00C3.500
%
T01
X0073056Y0001195
X0008848Y0032595
X0006348Y0034995
X0006448Y0040095
Y0045095
X0008974Y0042612
Y0037588
X0001574Y0037538
X00015Y0042595
X000135Y0032495
X0001675Y0028495
X0018174Y0031164
X0024744Y003179
X0025294Y0034495
X0024619Y0037163
X0028893Y0035495
X0031417Y0032795
X0036516Y0031717
X0036391Y0021569
X0045763Y0020595
X0046374Y0024666
X0042874Y0026066
X0025144Y0024269
X0024419Y0028818
X0017174Y0040562
X0030892Y0045111
X0052811Y0044689
X0053811Y0046163
X0055961Y0045863
X0057335Y0044689
X0056211Y0041539
X005676Y0036991
X005891Y0037415
X0055886Y0034316
X0053561Y0035291
X0050487Y0033941
X0055336Y0028143
X0056586Y0026993
X0056511Y0024444
X0062584Y0025368
X0064084Y0032917
X0066833Y003749
X0068732Y003849
X0073306Y0042864
Y0044489
X0073281Y0046088
X0077455
X0077505Y0044189
X007758Y0042214
X0075331Y0032417
X0070882Y0029467
X0069332Y0027893
X007733Y0023669
X0076255Y0019095
X0075931Y0014621
X0064683Y0015668
X0065683Y0019295
X0061359Y0013369
X0063659Y0042589
X005826Y0049937
X005721Y0052212
X0056036Y0053411
X0050012Y0053761
X0051537Y0049762
X0051062Y0062859
X0054374Y0062909
X0055461Y0066755
X0054374Y0068407
X0052736Y006938
X0054936Y0074178
X0057477Y0075546
X0055536Y0079252
X0057477Y0082632
X0056186Y0085326
X0062557Y0084001
X0064574Y0083251
X0064184Y0081302
X0062557Y0076751
X0063934Y0074178
X0066108Y0075695
X0067033Y0072095
X0066833Y0067395
X0072506Y0067595
X0072606Y0071395
X0072581Y0074995
X0071232Y0077977
X0069882Y0079302
X0072706Y0079395
X0072574Y0082926
X0070274Y0082754
X0067508Y0084795
Y0084995
X0050887Y0081302
X006021Y0062395
X0070332Y005836
X0071532Y0056685
X0069157Y0055936
X0072481Y0051087
X0074031Y0049987
X007853Y0055411
X007848Y0065958
X0077074Y0071332
X0048862Y006948
X0049149Y0076751
X0044069Y0075546
X0041539Y0074178
X0042164Y0079277
X0044069Y0082632
X0049149Y0084001
X0035741Y0084001
X0037365Y0081302
X0035741Y0076751
X0030661Y0075546
X0030074Y0078855
X0030661Y0082632
X0029243Y0084001
X0022333
X0023969Y0081302
X0021469Y0078052
X0022333Y0076751
X0018074Y0078355
X0017253Y0075546
X0014713Y0074178
X0012172Y0073895
X0011947Y0070579
X0013874Y0069457
X0014021Y0067605
X0014646Y0061634
X0011872Y0063031
X0018074Y0063356
X0023944Y0063295
X0022544Y0066655
X0025319Y0066895
X0026562Y0068924
X0028118Y0074178
X0034691Y0068955
X0035416Y0066295
X0033192Y0062809
X0027018Y0058632
X0022894Y005701
X0021569Y0058235
X0020174Y0057533
X002077Y0052909
X0023374Y0054533
X0023644Y0048395
X0030567Y004951
X0030817Y0054495
X0035916Y004676
X0045038Y0050062
X0047763Y0051087
X0048887Y0052512
X0047613Y0062309
X0041139Y0066405
X0017253Y0082632
X0013497Y0081795
X0011474Y0084451
X0009174Y0081702
X0001525Y0082495
X0001625Y0077595
X00015Y0072495
Y0067595
X0001525Y0062595
X0001474Y0057533
Y0052634
X00015Y0047495
X0006448Y0050095
X0009174Y0052534
X0007098Y0054997
X0009123Y0057595
X0007748Y0058982
X0008815Y0063189
X0009074Y0086675
X0066174Y0088525
X0069974Y0087428
X0072674Y008865
T02
X0040774Y002122
X004004Y0029995
X0032542
X0032574Y0035016
X0037474Y0035041
X0035074Y003749
X0039974Y0037565
X0042539Y0034995
X0047574Y0045013
X0031974Y0042514
X0049012Y0019395
X0055086Y0019195
X0053774Y0029218
X0053836Y0037995
X0054136Y0042489
X0062859Y003749
X0064858Y0039415
X0074956Y0040015
X0075006Y0035016
X0072856Y0030592
X0063934Y0026468
X0069382Y0015895
X0078374Y0013946
Y0008073
X0065208Y0007595
X0066358Y0047288
X0062684Y0047363
X0067233Y0053286
X0070957Y0054111
X0076355Y0052162
X007653Y0048163
X0076874Y005776
X005706Y0060285
X005701Y0063134
X0057174Y0054911
X0045874Y0053836
X0044974Y0047488
T03
X0029792Y0038089
Y0040589
X0075888Y0076208
X0078388
T04
X0009612Y0025002
Y0028902
X0045488Y0030439
X0048028Y0030439
X0048028Y0032979
Y0035519
Y0038059
Y0040599
X0045488
X0045488Y0038059
X0045488Y0035519
X0054357Y0059991
Y0064991
X0060357
X0060357Y0059991
X0060017Y0071469
X0057477
X0054937
X0051689Y0071469
X0062557Y0071469
X0065097
X0049149Y0071469
X0046609
X0044069
X0041529
X0038281Y0071469
X0035741
X0033201
X0030661
X0028121Y0071469
X0024873Y0071469
X0022333
X0019793
X0017253
X0014713
X0019562Y0064987
Y0059987
X0025562
Y0064987
X0036962
Y0059987
X0042962
Y0064987
X0044069Y0086709
X0046609Y0086709
X0049149
X0041529Y0086709
X0038281Y0086709
X0035741
X0033201Y0086709
X0030661
X0028121
X0024873
X0022333
X0019793Y0086709
X0017253
X0014713
X0051689Y0086709
X0054937
X0057477
X0060017
X0062557Y0086709
X0065097
T05
X0022107Y0034399
Y0039399
X0022489Y004589
Y005089
T06
X0051107Y0059989
Y0064989
X0063607
Y0059909
X0046212Y0059905
Y0064985
X0033712
X0028812
Y0059905
X0033712Y0059985
X0016312Y0059985
Y0064985
T07
X0054072Y0003791
X0059072
X00641Y00038
X00691Y00038
X0049072Y0003791
X0028204Y000439
X0015704Y000439
X00038Y0029997
Y0034997
Y0039997
X00038Y0044997
X0012804Y004372
Y004032
Y003692
Y003352
X0015304Y003182
X0015304Y003522
X0015304Y003862
X0015304Y004202
Y004542
X0015704Y001689
X0028204
X0029504Y001069
X0036425Y0007947
X0036425Y0018147
X004577Y00163
X004707Y00101
Y00226
X005957Y00226
Y00101
X0015304Y004882
X0012804Y004712
X00038Y0049997
Y0054997
X0003799Y0059999
Y0064999
X0003799Y0069999
X00038Y0074997
Y0079997
T08
X0023765Y0004247
X0021225Y0021947
X0013575
T09
X00765Y00035
X00035
X0004403Y0011606
Y0020806
X00035Y00865
X00765
M30
